<?xml version="1.0" encoding="utf-8"?>
<!-- Generator: Adobe Illustrator 24.1.2, SVG Export Plug-In . SVG Version: 6.00 Build 0)  -->
<svg version="1.1" id="Camada_1" xmlns="http://www.w3.org/2000/svg" xmlns:xlink="http://www.w3.org/1999/xlink" x="0px" y="0px"
	 viewBox="0 0 512 512" style="enable-background:new 0 0 512 512;" xml:space="preserve">
<style type="text/css">
	.st0{fill:#FFFFFF;}
</style>
<g id="Page-1">
	<g id="_x30_36---Brain-Wired" transform="translate(0 -1)">
		<path id="Shape" class="st0" d="M426.6,51.9C359.3-1,301.4-10.7,197,13.3c-28.3,6.5-60.4,16.5-83.5,41
			c-15.1,16.1-26.7,35.1-34.1,55.8c-3.2,9.1-5.8,18.5-7.7,27.9l-0.7,3c-1.9,6.9-4.4,13.6-7.5,20c-4.5,7.8-7,16.6-7,25.6
			c1.7,7.6,6.1,14.4,12.4,19c4.2,3.8,6.9,6.5,6.9,9c-0.4,1.4-0.9,2.7-1.6,4c-1.4,2.4-2.3,5-2.9,7.8c-1.2,10.2-5.3,19.9-12,27.7
			c-26.8,28.9-34.5,38.8-33.5,49.1c1.5,7.2,6,13.3,12.4,16.8c2.8,2,5.8,3.7,8.9,5.2c3.7,1.9,9.8,5,10.2,7.3c0.6,2.9,0.2,5.9-0.9,8.6
			c-1.3,2.7-2.6,5-3.7,7c-3.3,5.9-8.3,14.8-0.5,21.4c1.8,1.6,5,4.1,7.9,6.3c-2.1,3.8-3.1,8.1-2.7,12.4c0.4,3.3,2.3,6.3,5,8.3
			c1.9,1.4,3.9,2.6,6,3.7c5,2.9,6.9,4.2,7.6,6.8c0.6,3.2,0.4,6.5-0.7,9.6c-2.8,10-2.3,20.7,1.4,30.4c4.4,16.2,20.7,26.1,37.1,22.6
			c24.3-5.9,48.3-13.1,71.8-21.5c11.8,7,23,24.1,31,47.6c3.5,10.4,13.3,17.4,24.3,17.5h172.1c8.9,0,17.1-4.6,21.7-12.1
			s5.1-16.9,1.2-24.9c-10.7-23.7-17.3-49-19.6-74.9c-3-25.5,0.8-51.4,11.1-74.9c6.1-12.7,13.7-24.7,22.6-35.8
			c16.9-22.8,36-48.6,36.6-92.6c0.5-24.5-2.5-48.9-8.9-72.5C468.9,96,451,70.2,426.6,51.9L426.6,51.9z M436,280.2
			c-9.6,12.1-17.8,25.2-24.5,39.1c-11.5,26.3-15.8,55.3-12.4,83.8c2.6,27.9,9.8,55.1,21.3,80.6c1.3,2.6,1.1,5.7-0.5,8.2
			s-4.3,4-7.2,4H240.7c-3.7,0-7-2.4-8.1-5.9c-5.6-18.1-15.1-34.7-28-48.6l6.4-2.2c6.3-2.2,11.1-3.9,13.4-4.6
			c36.5-11.5,54.8-28.2,54.3-49.4c0-2.3-0.9-4.5-2.6-6s-3.9-2.4-6.2-2.3c-2.3,0.1-4.4,1-6,2.6s-2.4,3.8-2.4,6.1
			c0.2,8.8-7,21.6-42.3,32.8c-2.5,0.8-7.4,2.5-14,4.8c-6.1,2.2-13.7,4.8-22,7.7h-0.1c-23.9,8.7-48.3,16.1-73.1,22.1
			c-8,1.5-15.7-3.5-17.5-11.5c-2.7-6.7-3-14.1-0.9-20.9c1.8-5.7,2-11.8,0.7-17.7c-2.4-7.8-8.2-14.2-15.7-17.5
			c-0.6-0.3-1.2-0.7-1.8-1c0.9-1.9,2-3.7,3.3-5.3c1.4-1.8,2-4.1,1.7-6.4c-0.3-2.3-1.5-4.3-3.4-5.7c-2-1.5-6.9-5.2-10.4-8
			c0.4-0.8,0.9-1.7,1.4-2.5c1.3-2.3,2.8-5,4.3-8c2.7-6,3.5-12.6,2.3-19.1c-2-10.5-11.9-15.6-19.2-19.3c-2.2-1.1-4.4-2.3-6.5-3.6
			c-2-1.4-3.9-2.9-5.6-4.6c0.1-4.9,18.9-25.2,29-36.1c9-10.3,14.7-23,16.3-36.5c0.4-1,0.8-1.9,1.3-2.9c2.1-3.6,3.3-7.7,3.5-11.9
			C92,205.8,87.4,198,80.3,193c-3.4-3.2-6.7-6.1-7.1-8.8c1-5.7,3-11.2,5.7-16.3c3.6-7.4,6.4-15.2,8.5-23.1l0.7-3
			c1.8-8.8,4.2-17.4,7.1-25.9c6.7-18.6,17.1-35.6,30.5-50c19.9-21.1,47.8-29.8,75-36.1C312.2,4.3,360.6,21.7,416,65.3
			c21.7,16,37.5,38.7,45,64.6c6,22,8.7,44.8,8.3,67.6C468.8,236,452.9,257.5,436,280.2L436,280.2z"/>
		<path id="Shape_1_" class="st0" d="M367.6,144.2c12.3,13.1,32.4,14.9,46.9,4.3s18.8-30.3,10.1-46c-8.7-15.7-27.8-22.4-44.4-15.7
			s-25.7,24.8-21.1,42.1c-10.5,9.1-19.1,20.3-25.3,32.8c-5.5-4.1-11.4-7.5-17.7-10.2c-7.2-13.8-5.9-32.6-2.6-48.3
			c0.6,0,1.1,0.2,1.7,0.2c17.2,0.1,31.8-12.4,34.3-29.4c2.5-17-7.9-33.2-24.4-38s-34,3.2-41,18.9c-7,15.7-1.5,34.1,13.1,43.3
			c-3.7,14.9-4.3,30.5-1.7,45.7c-7.3-2.3-15.2-4.4-23.9-6.4c-7.9-1.8-15.3-3.3-22.3-4.5c-7.2-6.3-12.6-14.3-15.7-23.3
			c16.1-6.1,25.1-23.3,21.1-40s-19.9-27.9-37-26c-17.1,1.9-30.2,16.2-30.5,33.4c-0.3,17.2,12.2,32,29.2,34.5
			c1.7,6,4.1,11.8,7.3,17.2c-16.9-2.5-32.8-4.3-45.6-5.5c-2.9-17-18-29.2-35.2-28.5c-17.2,0.7-31.3,14.2-32.7,31.4
			s10.1,32.8,27,36.4c16.9,3.6,33.8-5.9,39.5-22.2c18.2,1.7,42.7,4.6,67.1,9l1.4,0.3c-8.6,6.9-16.2,14.9-22.7,23.8
			c-3.1-1-6.3-1.5-9.6-1.6c-16.3-0.1-30.4,11.4-33.7,27.4c-3.3,16,5.2,32.1,20.2,38.4c15,6.4,32.5,1.2,41.7-12.2
			c9.2-13.5,7.6-31.6-3.8-43.3c7.1-10,16.2-18.3,26.7-24.6c2-1.1,4.1-2,6.3-2.8c12.1,2.7,23.9,6.3,35.4,10.8
			c0.3,0.1,0.5,0.3,0.8,0.4l0.1,0.1l0.1,0.1c7.2,2.6,13.9,6.6,19.6,11.7c1.1,1,2,2.2,2.7,3.5c3.9,6.6,3.1,16.4-2.7,30.9
			c-3.2,8-7.3,16.3-11.7,25.1c-15.1,30-32.1,64.1-4.6,86.2c32.1,25.7,33.2,114.3,31,146.3c-0.2,2.3,0.6,4.5,2.1,6.2
			c1.5,1.7,3.6,2.8,5.8,2.9h0.6c4.5,0,8.2-3.5,8.5-7.9c0.4-5.1,8.3-124.4-37.3-160.9c-15.6-12.5-6.5-33.9,9.2-65.2
			c3.8-7.6,7.6-15.4,10.8-23c8.6-2.1,17.6,0.5,23.7,6.8c-10.2,14.2-8.2,33.7,4.6,45.6s32.4,12.4,45.8,1.2
			c13.4-11.2,16.4-30.6,7-45.3c-9.4-14.7-28.3-20.1-44.1-12.6c-8.3-8.1-19.2-12.9-30.8-13.7c2.5-9,2.1-18.5-1.1-27.2
			C350.6,164.5,358.1,153.4,367.6,144.2L367.6,144.2z M392.1,103.4c9.4,0,17.1,7.6,17.1,17.1s-7.6,17.1-17.1,17.1
			s-17.1-7.6-17.1-17.1S382.6,103.4,392.1,103.4z M315.3,52.2c9.4,0,17.1,7.6,17.1,17.1s-7.6,17.1-17.1,17.1s-17.1-7.6-17.1-17.1
			S305.8,52.2,315.3,52.2z M204.3,77.8c0-9.4,7.6-17.1,17.1-17.1c9.4,0,17.1,7.6,17.1,17.1s-7.6,17.1-17.1,17.1
			C212,94.9,204.3,87.2,204.3,77.8z M144.6,146.1c-9.4,0-17.1-7.6-17.1-17.1s7.6-17.1,17.1-17.1s17.1,7.6,17.1,17.1
			C161.7,138.4,154,146.1,144.6,146.1z M212.9,222.9c-9.4,0-17.1-7.6-17.1-17.1s7.6-17.1,17.1-17.1c9.4,0,17.1,7.6,17.1,17.1
			S222.3,222.9,212.9,222.9z M409.1,248.5c0,9.4-7.6,17.1-17.1,17.1s-17.1-7.6-17.1-17.1c0-9.4,7.6-17.1,17.1-17.1
			S409.1,239,409.1,248.5z"/>
	</g>
</g>
</svg>
